<mxfile host="app.diagrams.net" modified="2024-03-01T18:38:06.185Z" agent="Mozilla/5.0 (Windows NT 10.0; Win64; x64) AppleWebKit/537.36 (KHTML, like Gecko) Chrome/121.0.0.0 Safari/537.36" etag="ESRd3o5dASyVi8zQ1xpK" version="24.0.0" type="device" pages="4">
  <diagram id="THf03zkMXwcFa5dsMijQ" name="Logistics">
    <mxGraphModel dx="3576" dy="2448" grid="1" gridSize="10" guides="1" tooltips="1" connect="1" arrows="1" fold="1" page="0" pageScale="1" pageWidth="1169" pageHeight="827" math="0" shadow="0">
      <root>
        <mxCell id="0" />
        <mxCell id="1" parent="0" />
        <mxCell id="6ZOBeFvuRxk5Ak8Zgt_7-1" style="edgeStyle=orthogonalEdgeStyle;rounded=0;orthogonalLoop=1;jettySize=auto;html=1;entryX=0.25;entryY=0;entryDx=0;entryDy=0;" parent="1" source="6ZOBeFvuRxk5Ak8Zgt_7-3" target="6ZOBeFvuRxk5Ak8Zgt_7-13" edge="1">
          <mxGeometry relative="1" as="geometry" />
        </mxCell>
        <mxCell id="6ZOBeFvuRxk5Ak8Zgt_7-2" style="edgeStyle=orthogonalEdgeStyle;rounded=0;orthogonalLoop=1;jettySize=auto;html=1;entryX=1;entryY=0.5;entryDx=0;entryDy=0;" parent="1" source="6ZOBeFvuRxk5Ak8Zgt_7-3" target="6ZOBeFvuRxk5Ak8Zgt_7-47" edge="1">
          <mxGeometry relative="1" as="geometry" />
        </mxCell>
        <mxCell id="6ZOBeFvuRxk5Ak8Zgt_7-3" value="User" style="swimlane;fontStyle=2;align=center;verticalAlign=top;childLayout=stackLayout;horizontal=1;startSize=26;horizontalStack=0;resizeParent=1;resizeLast=0;collapsible=1;marginBottom=0;rounded=0;shadow=0;strokeWidth=1;" parent="1" vertex="1">
          <mxGeometry x="310" y="-120" width="180" height="250" as="geometry">
            <mxRectangle x="230" y="140" width="160" height="26" as="alternateBounds" />
          </mxGeometry>
        </mxCell>
        <mxCell id="6ZOBeFvuRxk5Ak8Zgt_7-4" value="- username: String" style="text;align=left;verticalAlign=top;spacingLeft=4;spacingRight=4;overflow=hidden;rotatable=0;points=[[0,0.5],[1,0.5]];portConstraint=eastwest;" parent="6ZOBeFvuRxk5Ak8Zgt_7-3" vertex="1">
          <mxGeometry y="26" width="180" height="26" as="geometry" />
        </mxCell>
        <mxCell id="6ZOBeFvuRxk5Ak8Zgt_7-5" value="- phone_num: String" style="text;align=left;verticalAlign=top;spacingLeft=4;spacingRight=4;overflow=hidden;rotatable=0;points=[[0,0.5],[1,0.5]];portConstraint=eastwest;rounded=0;shadow=0;html=0;" parent="6ZOBeFvuRxk5Ak8Zgt_7-3" vertex="1">
          <mxGeometry y="52" width="180" height="26" as="geometry" />
        </mxCell>
        <mxCell id="6ZOBeFvuRxk5Ak8Zgt_7-6" value="- email_add: String" style="text;align=left;verticalAlign=top;spacingLeft=4;spacingRight=4;overflow=hidden;rotatable=0;points=[[0,0.5],[1,0.5]];portConstraint=eastwest;rounded=0;shadow=0;html=0;" parent="6ZOBeFvuRxk5Ak8Zgt_7-3" vertex="1">
          <mxGeometry y="78" width="180" height="26" as="geometry" />
        </mxCell>
        <mxCell id="6ZOBeFvuRxk5Ak8Zgt_7-7" value="- high_score: HighScore" style="text;align=left;verticalAlign=top;spacingLeft=4;spacingRight=4;overflow=hidden;rotatable=0;points=[[0,0.5],[1,0.5]];portConstraint=eastwest;rounded=0;shadow=0;html=0;" parent="6ZOBeFvuRxk5Ak8Zgt_7-3" vertex="1">
          <mxGeometry y="104" width="180" height="26" as="geometry" />
        </mxCell>
        <mxCell id="6ZOBeFvuRxk5Ak8Zgt_7-8" value="" style="line;html=1;strokeWidth=1;align=left;verticalAlign=middle;spacingTop=-1;spacingLeft=3;spacingRight=3;rotatable=0;labelPosition=right;points=[];portConstraint=eastwest;" parent="6ZOBeFvuRxk5Ak8Zgt_7-3" vertex="1">
          <mxGeometry y="130" width="180" height="8" as="geometry" />
        </mxCell>
        <mxCell id="6ZOBeFvuRxk5Ak8Zgt_7-9" value="+ getEmail(): String" style="text;align=left;verticalAlign=top;spacingLeft=4;spacingRight=4;overflow=hidden;rotatable=0;points=[[0,0.5],[1,0.5]];portConstraint=eastwest;rounded=0;shadow=0;html=0;" parent="6ZOBeFvuRxk5Ak8Zgt_7-3" vertex="1">
          <mxGeometry y="138" width="180" height="26" as="geometry" />
        </mxCell>
        <mxCell id="6ZOBeFvuRxk5Ak8Zgt_7-10" value="+ getPhone(): String" style="text;align=left;verticalAlign=top;spacingLeft=4;spacingRight=4;overflow=hidden;rotatable=0;points=[[0,0.5],[1,0.5]];portConstraint=eastwest;rounded=0;shadow=0;html=0;" parent="6ZOBeFvuRxk5Ak8Zgt_7-3" vertex="1">
          <mxGeometry y="164" width="180" height="26" as="geometry" />
        </mxCell>
        <mxCell id="6ZOBeFvuRxk5Ak8Zgt_7-11" value="+ getUsername(): String" style="text;align=left;verticalAlign=top;spacingLeft=4;spacingRight=4;overflow=hidden;rotatable=0;points=[[0,0.5],[1,0.5]];portConstraint=eastwest;rounded=0;shadow=0;html=0;" parent="6ZOBeFvuRxk5Ak8Zgt_7-3" vertex="1">
          <mxGeometry y="190" width="180" height="26" as="geometry" />
        </mxCell>
        <mxCell id="6ZOBeFvuRxk5Ak8Zgt_7-12" value="+ getHighScore(): HighScore" style="text;align=left;verticalAlign=top;spacingLeft=4;spacingRight=4;overflow=hidden;rotatable=0;points=[[0,0.5],[1,0.5]];portConstraint=eastwest;rounded=0;shadow=0;html=0;" parent="6ZOBeFvuRxk5Ak8Zgt_7-3" vertex="1">
          <mxGeometry y="216" width="180" height="26" as="geometry" />
        </mxCell>
        <mxCell id="6ZOBeFvuRxk5Ak8Zgt_7-13" value="AccountManager" style="swimlane;fontStyle=2;align=center;verticalAlign=top;childLayout=stackLayout;horizontal=1;startSize=26;horizontalStack=0;resizeParent=1;resizeLast=0;collapsible=1;marginBottom=0;rounded=0;shadow=0;strokeWidth=1;" parent="1" vertex="1">
          <mxGeometry x="270" y="268" width="500" height="277" as="geometry">
            <mxRectangle x="230" y="140" width="160" height="26" as="alternateBounds" />
          </mxGeometry>
        </mxCell>
        <mxCell id="6ZOBeFvuRxk5Ak8Zgt_7-14" value="- currentUser: User" style="text;html=1;align=left;verticalAlign=middle;resizable=0;points=[];autosize=1;strokeColor=none;fillColor=none;" parent="6ZOBeFvuRxk5Ak8Zgt_7-13" vertex="1">
          <mxGeometry y="26" width="500" height="30" as="geometry" />
        </mxCell>
        <mxCell id="6ZOBeFvuRxk5Ak8Zgt_7-15" value="" style="line;html=1;strokeWidth=1;align=left;verticalAlign=middle;spacingTop=-1;spacingLeft=3;spacingRight=3;rotatable=0;labelPosition=right;points=[];portConstraint=eastwest;" parent="6ZOBeFvuRxk5Ak8Zgt_7-13" vertex="1">
          <mxGeometry y="56" width="500" height="8" as="geometry" />
        </mxCell>
        <mxCell id="6ZOBeFvuRxk5Ak8Zgt_7-16" value="+ LoadUser(username: String, email: String)" style="text;html=1;align=left;verticalAlign=middle;resizable=0;points=[];autosize=1;strokeColor=none;fillColor=none;" parent="6ZOBeFvuRxk5Ak8Zgt_7-13" vertex="1">
          <mxGeometry y="64" width="500" height="30" as="geometry" />
        </mxCell>
        <mxCell id="6ZOBeFvuRxk5Ak8Zgt_7-17" value="+ saveAccount(String username, String password, String email, string name, string initials)" style="text;html=1;align=left;verticalAlign=middle;resizable=0;points=[];autosize=1;strokeColor=none;fillColor=none;" parent="6ZOBeFvuRxk5Ak8Zgt_7-13" vertex="1">
          <mxGeometry y="94" width="500" height="30" as="geometry" />
        </mxCell>
        <mxCell id="6ZOBeFvuRxk5Ak8Zgt_7-18" value="+ verifyAdmin(typedUsername: String, typedPassword: String): boolean" style="text;html=1;align=left;verticalAlign=middle;resizable=0;points=[];autosize=1;strokeColor=none;fillColor=none;" parent="6ZOBeFvuRxk5Ak8Zgt_7-13" vertex="1">
          <mxGeometry y="124" width="500" height="30" as="geometry" />
        </mxCell>
        <mxCell id="6ZOBeFvuRxk5Ak8Zgt_7-19" value="+ assignClass(instructor: Instructor, code: String, className: String, students: Student[])" style="text;html=1;align=left;verticalAlign=middle;resizable=0;points=[];autosize=1;strokeColor=none;fillColor=none;" parent="6ZOBeFvuRxk5Ak8Zgt_7-13" vertex="1">
          <mxGeometry y="154" width="500" height="30" as="geometry" />
        </mxCell>
        <mxCell id="6ZOBeFvuRxk5Ak8Zgt_7-20" value="+ getCurrentUser(): User" style="text;html=1;align=left;verticalAlign=middle;resizable=0;points=[];autosize=1;strokeColor=none;fillColor=none;" parent="6ZOBeFvuRxk5Ak8Zgt_7-13" vertex="1">
          <mxGeometry y="184" width="500" height="30" as="geometry" />
        </mxCell>
        <mxCell id="6ZOBeFvuRxk5Ak8Zgt_7-21" value="+ setCurrentUser(currentUser: User): boolean" style="text;html=1;align=left;verticalAlign=middle;resizable=0;points=[];autosize=1;strokeColor=none;fillColor=none;" parent="6ZOBeFvuRxk5Ak8Zgt_7-13" vertex="1">
          <mxGeometry y="214" width="500" height="30" as="geometry" />
        </mxCell>
        <mxCell id="6ZOBeFvuRxk5Ak8Zgt_7-22" value="+ verifyUser(typedUsername: String, typedPassword: String): boolean" style="text;html=1;align=left;verticalAlign=middle;resizable=0;points=[];autosize=1;strokeColor=none;fillColor=none;" parent="6ZOBeFvuRxk5Ak8Zgt_7-13" vertex="1">
          <mxGeometry y="244" width="500" height="30" as="geometry" />
        </mxCell>
        <mxCell id="Oc8KOJMVeh3YOnucM4FR-26" style="edgeStyle=orthogonalEdgeStyle;rounded=0;orthogonalLoop=1;jettySize=auto;html=1;entryX=0;entryY=0.5;entryDx=0;entryDy=0;" edge="1" parent="1" source="6ZOBeFvuRxk5Ak8Zgt_7-23" target="6ZOBeFvuRxk5Ak8Zgt_7-42">
          <mxGeometry relative="1" as="geometry" />
        </mxCell>
        <mxCell id="6ZOBeFvuRxk5Ak8Zgt_7-23" value="Instructor" style="swimlane;fontStyle=2;align=center;verticalAlign=top;childLayout=stackLayout;horizontal=1;startSize=26;horizontalStack=0;resizeParent=1;resizeLast=0;collapsible=1;marginBottom=0;rounded=0;shadow=0;strokeWidth=1;" parent="1" vertex="1">
          <mxGeometry x="700" y="-47" width="250" height="160" as="geometry">
            <mxRectangle x="230" y="140" width="160" height="26" as="alternateBounds" />
          </mxGeometry>
        </mxCell>
        <mxCell id="6ZOBeFvuRxk5Ak8Zgt_7-24" value="- admin_password: String" style="text;align=left;verticalAlign=top;spacingLeft=4;spacingRight=4;overflow=hidden;rotatable=0;points=[[0,0.5],[1,0.5]];portConstraint=eastwest;rounded=0;shadow=0;html=0;" parent="6ZOBeFvuRxk5Ak8Zgt_7-23" vertex="1">
          <mxGeometry y="26" width="250" height="26" as="geometry" />
        </mxCell>
        <mxCell id="6ZOBeFvuRxk5Ak8Zgt_7-25" value="- classes: Class[]" style="text;align=left;verticalAlign=top;spacingLeft=4;spacingRight=4;overflow=hidden;rotatable=0;points=[[0,0.5],[1,0.5]];portConstraint=eastwest;rounded=0;shadow=0;html=0;" parent="6ZOBeFvuRxk5Ak8Zgt_7-23" vertex="1">
          <mxGeometry y="52" width="250" height="26" as="geometry" />
        </mxCell>
        <mxCell id="6ZOBeFvuRxk5Ak8Zgt_7-26" value="" style="line;html=1;strokeWidth=1;align=left;verticalAlign=middle;spacingTop=-1;spacingLeft=3;spacingRight=3;rotatable=0;labelPosition=right;points=[];portConstraint=eastwest;" parent="6ZOBeFvuRxk5Ak8Zgt_7-23" vertex="1">
          <mxGeometry y="78" width="250" height="8" as="geometry" />
        </mxCell>
        <mxCell id="6ZOBeFvuRxk5Ak8Zgt_7-27" value="+ getClass(code: int): Class" style="text;align=left;verticalAlign=top;spacingLeft=4;spacingRight=4;overflow=hidden;rotatable=0;points=[[0,0.5],[1,0.5]];portConstraint=eastwest;rounded=0;shadow=0;html=0;" parent="6ZOBeFvuRxk5Ak8Zgt_7-23" vertex="1">
          <mxGeometry y="86" width="250" height="26" as="geometry" />
        </mxCell>
        <mxCell id="6ZOBeFvuRxk5Ak8Zgt_7-28" value="+ getStudent(username: String): User" style="text;align=left;verticalAlign=top;spacingLeft=4;spacingRight=4;overflow=hidden;rotatable=0;points=[[0,0.5],[1,0.5]];portConstraint=eastwest;rounded=0;shadow=0;html=0;" parent="6ZOBeFvuRxk5Ak8Zgt_7-23" vertex="1">
          <mxGeometry y="112" width="250" height="26" as="geometry" />
        </mxCell>
        <mxCell id="6ZOBeFvuRxk5Ak8Zgt_7-29" value="Developer" style="swimlane;fontStyle=2;align=center;verticalAlign=top;childLayout=stackLayout;horizontal=1;startSize=26;horizontalStack=0;resizeParent=1;resizeLast=0;collapsible=1;marginBottom=0;rounded=0;shadow=0;strokeWidth=1;" parent="1" vertex="1">
          <mxGeometry x="1190" y="-27" width="190" height="120" as="geometry">
            <mxRectangle x="230" y="140" width="160" height="26" as="alternateBounds" />
          </mxGeometry>
        </mxCell>
        <mxCell id="6ZOBeFvuRxk5Ak8Zgt_7-30" value="- dev_password: String" style="text;align=left;verticalAlign=top;spacingLeft=4;spacingRight=4;overflow=hidden;rotatable=0;points=[[0,0.5],[1,0.5]];portConstraint=eastwest;rounded=0;shadow=0;html=0;" parent="6ZOBeFvuRxk5Ak8Zgt_7-29" vertex="1">
          <mxGeometry y="26" width="190" height="26" as="geometry" />
        </mxCell>
        <mxCell id="6ZOBeFvuRxk5Ak8Zgt_7-31" value="" style="line;html=1;strokeWidth=1;align=left;verticalAlign=middle;spacingTop=-1;spacingLeft=3;spacingRight=3;rotatable=0;labelPosition=right;points=[];portConstraint=eastwest;" parent="6ZOBeFvuRxk5Ak8Zgt_7-29" vertex="1">
          <mxGeometry y="52" width="190" height="8" as="geometry" />
        </mxCell>
        <mxCell id="6ZOBeFvuRxk5Ak8Zgt_7-32" value="Class" style="swimlane;fontStyle=2;align=center;verticalAlign=top;childLayout=stackLayout;horizontal=1;startSize=26;horizontalStack=0;resizeParent=1;resizeLast=0;collapsible=1;marginBottom=0;rounded=0;shadow=0;strokeWidth=1;" parent="1" vertex="1">
          <mxGeometry x="663" y="-470" width="340" height="268" as="geometry">
            <mxRectangle x="230" y="140" width="160" height="26" as="alternateBounds" />
          </mxGeometry>
        </mxCell>
        <mxCell id="6ZOBeFvuRxk5Ak8Zgt_7-33" value="- code: int" style="text;align=left;verticalAlign=top;spacingLeft=4;spacingRight=4;overflow=hidden;rotatable=0;points=[[0,0.5],[1,0.5]];portConstraint=eastwest;" parent="6ZOBeFvuRxk5Ak8Zgt_7-32" vertex="1">
          <mxGeometry y="26" width="340" height="26" as="geometry" />
        </mxCell>
        <mxCell id="6ZOBeFvuRxk5Ak8Zgt_7-34" value="- name: String" style="text;align=left;verticalAlign=top;spacingLeft=4;spacingRight=4;overflow=hidden;rotatable=0;points=[[0,0.5],[1,0.5]];portConstraint=eastwest;rounded=0;shadow=0;html=0;" parent="6ZOBeFvuRxk5Ak8Zgt_7-32" vertex="1">
          <mxGeometry y="52" width="340" height="26" as="geometry" />
        </mxCell>
        <mxCell id="6ZOBeFvuRxk5Ak8Zgt_7-35" value="- instructor: Instructor" style="text;align=left;verticalAlign=top;spacingLeft=4;spacingRight=4;overflow=hidden;rotatable=0;points=[[0,0.5],[1,0.5]];portConstraint=eastwest;rounded=0;shadow=0;html=0;" parent="6ZOBeFvuRxk5Ak8Zgt_7-32" vertex="1">
          <mxGeometry y="78" width="340" height="26" as="geometry" />
        </mxCell>
        <mxCell id="6ZOBeFvuRxk5Ak8Zgt_7-36" value="- students: User[]" style="text;align=left;verticalAlign=top;spacingLeft=4;spacingRight=4;overflow=hidden;rotatable=0;points=[[0,0.5],[1,0.5]];portConstraint=eastwest;rounded=0;shadow=0;html=0;" parent="6ZOBeFvuRxk5Ak8Zgt_7-32" vertex="1">
          <mxGeometry y="104" width="340" height="26" as="geometry" />
        </mxCell>
        <mxCell id="6ZOBeFvuRxk5Ak8Zgt_7-37" value="" style="line;html=1;strokeWidth=1;align=left;verticalAlign=middle;spacingTop=-1;spacingLeft=3;spacingRight=3;rotatable=0;labelPosition=right;points=[];portConstraint=eastwest;" parent="6ZOBeFvuRxk5Ak8Zgt_7-32" vertex="1">
          <mxGeometry y="130" width="340" height="8" as="geometry" />
        </mxCell>
        <mxCell id="6ZOBeFvuRxk5Ak8Zgt_7-38" value="+ getNumStudents(): int" style="text;align=left;verticalAlign=top;spacingLeft=4;spacingRight=4;overflow=hidden;rotatable=0;points=[[0,0.5],[1,0.5]];portConstraint=eastwest;rounded=0;shadow=0;html=0;" parent="6ZOBeFvuRxk5Ak8Zgt_7-32" vertex="1">
          <mxGeometry y="138" width="340" height="26" as="geometry" />
        </mxCell>
        <mxCell id="6ZOBeFvuRxk5Ak8Zgt_7-39" value="+ getClassInstructor(): Instructor" style="text;align=left;verticalAlign=top;spacingLeft=4;spacingRight=4;overflow=hidden;rotatable=0;points=[[0,0.5],[1,0.5]];portConstraint=eastwest;rounded=0;shadow=0;html=0;" parent="6ZOBeFvuRxk5Ak8Zgt_7-32" vertex="1">
          <mxGeometry y="164" width="340" height="26" as="geometry" />
        </mxCell>
        <mxCell id="6ZOBeFvuRxk5Ak8Zgt_7-40" value="+ addStudent(username: String, email: String): boolean" style="text;align=left;verticalAlign=top;spacingLeft=4;spacingRight=4;overflow=hidden;rotatable=0;points=[[0,0.5],[1,0.5]];portConstraint=eastwest;rounded=0;shadow=0;html=0;" parent="6ZOBeFvuRxk5Ak8Zgt_7-32" vertex="1">
          <mxGeometry y="190" width="340" height="26" as="geometry" />
        </mxCell>
        <mxCell id="6ZOBeFvuRxk5Ak8Zgt_7-41" value="+ removeStudent(username: String, email: String): boolean" style="text;align=left;verticalAlign=top;spacingLeft=4;spacingRight=4;overflow=hidden;rotatable=0;points=[[0,0.5],[1,0.5]];portConstraint=eastwest;rounded=0;shadow=0;html=0;" parent="6ZOBeFvuRxk5Ak8Zgt_7-32" vertex="1">
          <mxGeometry y="216" width="340" height="26" as="geometry" />
        </mxCell>
        <mxCell id="6ZOBeFvuRxk5Ak8Zgt_7-42" value="+ acceptStudent(username: String)" style="text;align=left;verticalAlign=top;spacingLeft=4;spacingRight=4;overflow=hidden;rotatable=0;points=[[0,0.5],[1,0.5]];portConstraint=eastwest;rounded=0;shadow=0;html=0;" parent="6ZOBeFvuRxk5Ak8Zgt_7-32" vertex="1">
          <mxGeometry y="242" width="340" height="26" as="geometry" />
        </mxCell>
        <mxCell id="6ZOBeFvuRxk5Ak8Zgt_7-45" value="HighScore" style="swimlane;fontStyle=2;align=center;verticalAlign=top;childLayout=stackLayout;horizontal=1;startSize=26;horizontalStack=0;resizeParent=1;resizeLast=0;collapsible=1;marginBottom=0;rounded=0;shadow=0;strokeWidth=1;" parent="1" vertex="1">
          <mxGeometry x="-80" y="-40" width="190" height="146" as="geometry">
            <mxRectangle x="230" y="140" width="160" height="26" as="alternateBounds" />
          </mxGeometry>
        </mxCell>
        <mxCell id="6ZOBeFvuRxk5Ak8Zgt_7-46" value="- points: int" style="text;align=left;verticalAlign=top;spacingLeft=4;spacingRight=4;overflow=hidden;rotatable=0;points=[[0,0.5],[1,0.5]];portConstraint=eastwest;rounded=0;shadow=0;html=0;" parent="6ZOBeFvuRxk5Ak8Zgt_7-45" vertex="1">
          <mxGeometry y="26" width="190" height="26" as="geometry" />
        </mxCell>
        <mxCell id="6ZOBeFvuRxk5Ak8Zgt_7-47" value="- user: User" style="text;align=left;verticalAlign=top;spacingLeft=4;spacingRight=4;overflow=hidden;rotatable=0;points=[[0,0.5],[1,0.5]];portConstraint=eastwest;rounded=0;shadow=0;html=0;" parent="6ZOBeFvuRxk5Ak8Zgt_7-45" vertex="1">
          <mxGeometry y="52" width="190" height="26" as="geometry" />
        </mxCell>
        <mxCell id="6ZOBeFvuRxk5Ak8Zgt_7-48" value="" style="line;html=1;strokeWidth=1;align=left;verticalAlign=middle;spacingTop=-1;spacingLeft=3;spacingRight=3;rotatable=0;labelPosition=right;points=[];portConstraint=eastwest;" parent="6ZOBeFvuRxk5Ak8Zgt_7-45" vertex="1">
          <mxGeometry y="78" width="190" height="8" as="geometry" />
        </mxCell>
        <mxCell id="6ZOBeFvuRxk5Ak8Zgt_7-49" value="+ getPoints(): int" style="text;html=1;align=left;verticalAlign=middle;resizable=0;points=[];autosize=1;strokeColor=none;fillColor=none;" parent="6ZOBeFvuRxk5Ak8Zgt_7-45" vertex="1">
          <mxGeometry y="86" width="190" height="30" as="geometry" />
        </mxCell>
        <mxCell id="6ZOBeFvuRxk5Ak8Zgt_7-50" value="+ getUser(): User" style="text;html=1;align=left;verticalAlign=middle;resizable=0;points=[];autosize=1;strokeColor=none;fillColor=none;" parent="6ZOBeFvuRxk5Ak8Zgt_7-45" vertex="1">
          <mxGeometry y="116" width="190" height="30" as="geometry" />
        </mxCell>
        <mxCell id="OuopKhXZXgL2LK8J2Vpw-45" style="edgeStyle=orthogonalEdgeStyle;rounded=0;orthogonalLoop=1;jettySize=auto;html=1;entryX=0.5;entryY=1;entryDx=0;entryDy=0;" edge="1" parent="1" source="6ZOBeFvuRxk5Ak8Zgt_7-52" target="6ZOBeFvuRxk5Ak8Zgt_7-13">
          <mxGeometry relative="1" as="geometry" />
        </mxCell>
        <mxCell id="OuopKhXZXgL2LK8J2Vpw-46" style="edgeStyle=orthogonalEdgeStyle;rounded=0;orthogonalLoop=1;jettySize=auto;html=1;entryX=0.5;entryY=0;entryDx=0;entryDy=0;" edge="1" parent="1" source="6ZOBeFvuRxk5Ak8Zgt_7-52" target="OuopKhXZXgL2LK8J2Vpw-2">
          <mxGeometry relative="1" as="geometry" />
        </mxCell>
        <mxCell id="6ZOBeFvuRxk5Ak8Zgt_7-52" value="Main" style="swimlane;fontStyle=2;align=center;verticalAlign=top;childLayout=stackLayout;horizontal=1;startSize=26;horizontalStack=0;resizeParent=1;resizeLast=0;collapsible=1;marginBottom=0;rounded=0;shadow=0;strokeWidth=1;" parent="1" vertex="1">
          <mxGeometry x="425" y="820" width="190" height="120" as="geometry">
            <mxRectangle x="230" y="140" width="160" height="26" as="alternateBounds" />
          </mxGeometry>
        </mxCell>
        <mxCell id="6ZOBeFvuRxk5Ak8Zgt_7-53" value="- dev_password: String" style="text;align=left;verticalAlign=top;spacingLeft=4;spacingRight=4;overflow=hidden;rotatable=0;points=[[0,0.5],[1,0.5]];portConstraint=eastwest;rounded=0;shadow=0;html=0;" parent="6ZOBeFvuRxk5Ak8Zgt_7-52" vertex="1">
          <mxGeometry y="26" width="190" height="26" as="geometry" />
        </mxCell>
        <mxCell id="6ZOBeFvuRxk5Ak8Zgt_7-54" value="" style="line;html=1;strokeWidth=1;align=left;verticalAlign=middle;spacingTop=-1;spacingLeft=3;spacingRight=3;rotatable=0;labelPosition=right;points=[];portConstraint=eastwest;" parent="6ZOBeFvuRxk5Ak8Zgt_7-52" vertex="1">
          <mxGeometry y="52" width="190" height="8" as="geometry" />
        </mxCell>
        <mxCell id="OuopKhXZXgL2LK8J2Vpw-1" style="edgeStyle=orthogonalEdgeStyle;rounded=0;orthogonalLoop=1;jettySize=auto;html=1;entryX=0.5;entryY=1;entryDx=0;entryDy=0;exitX=0.999;exitY=0.887;exitDx=0;exitDy=0;startArrow=classic;startFill=1;exitPerimeter=0;" edge="1" parent="1" source="OuopKhXZXgL2LK8J2Vpw-5" target="OuopKhXZXgL2LK8J2Vpw-20">
          <mxGeometry relative="1" as="geometry">
            <Array as="points">
              <mxPoint x="766" y="1275" />
              <mxPoint x="766" y="1360" />
              <mxPoint x="955" y="1360" />
            </Array>
          </mxGeometry>
        </mxCell>
        <mxCell id="OuopKhXZXgL2LK8J2Vpw-2" value="Switch" style="swimlane;fontStyle=2;align=center;verticalAlign=top;childLayout=stackLayout;horizontal=1;startSize=26;horizontalStack=0;resizeParent=1;resizeLast=0;collapsible=1;marginBottom=0;rounded=0;shadow=0;strokeWidth=1;" vertex="1" parent="1">
          <mxGeometry x="440" y="1200" width="160" height="268" as="geometry">
            <mxRectangle x="230" y="140" width="160" height="26" as="alternateBounds" />
          </mxGeometry>
        </mxCell>
        <mxCell id="OuopKhXZXgL2LK8J2Vpw-3" value="- light: Boolean" style="text;align=left;verticalAlign=top;spacingLeft=4;spacingRight=4;overflow=hidden;rotatable=0;points=[[0,0.5],[1,0.5]];portConstraint=eastwest;" vertex="1" parent="OuopKhXZXgL2LK8J2Vpw-2">
          <mxGeometry y="26" width="160" height="26" as="geometry" />
        </mxCell>
        <mxCell id="OuopKhXZXgL2LK8J2Vpw-4" value="- type: Gatetype" style="text;strokeColor=none;fillColor=none;align=left;verticalAlign=top;spacingLeft=4;spacingRight=4;overflow=hidden;rotatable=0;points=[[0,0.5],[1,0.5]];portConstraint=eastwest;whiteSpace=wrap;html=1;" vertex="1" parent="OuopKhXZXgL2LK8J2Vpw-2">
          <mxGeometry y="52" width="160" height="26" as="geometry" />
        </mxCell>
        <mxCell id="OuopKhXZXgL2LK8J2Vpw-5" value="- outputs: list[*]" style="text;align=left;verticalAlign=top;spacingLeft=4;spacingRight=4;overflow=hidden;rotatable=0;points=[[0,0.5],[1,0.5]];portConstraint=eastwest;" vertex="1" parent="OuopKhXZXgL2LK8J2Vpw-2">
          <mxGeometry y="78" width="160" height="26" as="geometry" />
        </mxCell>
        <mxCell id="OuopKhXZXgL2LK8J2Vpw-6" value="" style="line;html=1;strokeWidth=1;align=left;verticalAlign=middle;spacingTop=-1;spacingLeft=3;spacingRight=3;rotatable=0;labelPosition=right;points=[];portConstraint=eastwest;" vertex="1" parent="OuopKhXZXgL2LK8J2Vpw-2">
          <mxGeometry y="104" width="160" height="8" as="geometry" />
        </mxCell>
        <mxCell id="OuopKhXZXgL2LK8J2Vpw-7" value="+ getType(): Gatetype" style="text;html=1;align=left;verticalAlign=middle;resizable=0;points=[];autosize=1;strokeColor=none;fillColor=none;" vertex="1" parent="OuopKhXZXgL2LK8J2Vpw-2">
          <mxGeometry y="112" width="160" height="26" as="geometry" />
        </mxCell>
        <mxCell id="OuopKhXZXgL2LK8J2Vpw-8" value="+ GetLight(): Boolean" style="text;html=1;align=left;verticalAlign=middle;resizable=0;points=[];autosize=1;strokeColor=none;fillColor=none;" vertex="1" parent="OuopKhXZXgL2LK8J2Vpw-2">
          <mxGeometry y="138" width="160" height="26" as="geometry" />
        </mxCell>
        <mxCell id="OuopKhXZXgL2LK8J2Vpw-9" value="+ SetLight(light: Boolean)" style="text;strokeColor=none;fillColor=none;align=left;verticalAlign=top;spacingLeft=4;spacingRight=4;overflow=hidden;rotatable=0;points=[[0,0.5],[1,0.5]];portConstraint=eastwest;whiteSpace=wrap;html=1;" vertex="1" parent="OuopKhXZXgL2LK8J2Vpw-2">
          <mxGeometry y="164" width="160" height="26" as="geometry" />
        </mxCell>
        <mxCell id="OuopKhXZXgL2LK8J2Vpw-10" value="+ SendOutput()" style="text;strokeColor=none;fillColor=none;align=left;verticalAlign=top;spacingLeft=4;spacingRight=4;overflow=hidden;rotatable=0;points=[[0,0.5],[1,0.5]];portConstraint=eastwest;whiteSpace=wrap;html=1;" vertex="1" parent="OuopKhXZXgL2LK8J2Vpw-2">
          <mxGeometry y="190" width="160" height="26" as="geometry" />
        </mxCell>
        <mxCell id="OuopKhXZXgL2LK8J2Vpw-11" style="edgeStyle=orthogonalEdgeStyle;rounded=0;orthogonalLoop=1;jettySize=auto;html=1;entryX=0;entryY=0.5;entryDx=0;entryDy=0;exitX=0.5;exitY=0;exitDx=0;exitDy=0;startArrow=classic;startFill=1;" edge="1" parent="1" source="OuopKhXZXgL2LK8J2Vpw-12" target="OuopKhXZXgL2LK8J2Vpw-5">
          <mxGeometry relative="1" as="geometry">
            <mxPoint x="120" y="1220" as="sourcePoint" />
          </mxGeometry>
        </mxCell>
        <mxCell id="OuopKhXZXgL2LK8J2Vpw-12" value="Level" style="swimlane;fontStyle=2;align=center;verticalAlign=top;childLayout=stackLayout;horizontal=1;startSize=26;horizontalStack=0;resizeParent=1;resizeLast=0;collapsible=1;marginBottom=0;rounded=0;shadow=0;strokeWidth=1;" vertex="1" parent="1">
          <mxGeometry x="-10" y="1180" width="200" height="202" as="geometry">
            <mxRectangle x="40" y="640" width="160" height="26" as="alternateBounds" />
          </mxGeometry>
        </mxCell>
        <mxCell id="OuopKhXZXgL2LK8J2Vpw-13" value="- user: String" style="text;align=left;verticalAlign=top;spacingLeft=4;spacingRight=4;overflow=hidden;rotatable=0;points=[[0,0.5],[1,0.5]];portConstraint=eastwest;" vertex="1" parent="OuopKhXZXgL2LK8J2Vpw-12">
          <mxGeometry y="26" width="200" height="26" as="geometry" />
        </mxCell>
        <mxCell id="OuopKhXZXgL2LK8J2Vpw-14" value="- endLight: Light" style="text;strokeColor=none;fillColor=none;align=left;verticalAlign=top;spacingLeft=4;spacingRight=4;overflow=hidden;rotatable=0;points=[[0,0.5],[1,0.5]];portConstraint=eastwest;whiteSpace=wrap;html=1;" vertex="1" parent="OuopKhXZXgL2LK8J2Vpw-12">
          <mxGeometry y="52" width="200" height="26" as="geometry" />
        </mxCell>
        <mxCell id="OuopKhXZXgL2LK8J2Vpw-15" value="- Gatetype: enum" style="text;strokeColor=none;fillColor=none;align=left;verticalAlign=top;spacingLeft=4;spacingRight=4;overflow=hidden;rotatable=0;points=[[0,0.5],[1,0.5]];portConstraint=eastwest;whiteSpace=wrap;html=1;" vertex="1" parent="OuopKhXZXgL2LK8J2Vpw-12">
          <mxGeometry y="78" width="200" height="26" as="geometry" />
        </mxCell>
        <mxCell id="OuopKhXZXgL2LK8J2Vpw-16" value="" style="line;html=1;strokeWidth=1;align=left;verticalAlign=middle;spacingTop=-1;spacingLeft=3;spacingRight=3;rotatable=0;labelPosition=right;points=[];portConstraint=eastwest;" vertex="1" parent="OuopKhXZXgL2LK8J2Vpw-12">
          <mxGeometry y="104" width="200" height="8" as="geometry" />
        </mxCell>
        <mxCell id="OuopKhXZXgL2LK8J2Vpw-17" value="+ read_in_file(): boolean" style="text;html=1;align=left;verticalAlign=middle;resizable=0;points=[];autosize=1;strokeColor=none;fillColor=none;" vertex="1" parent="OuopKhXZXgL2LK8J2Vpw-12">
          <mxGeometry y="112" width="200" height="30" as="geometry" />
        </mxCell>
        <mxCell id="OuopKhXZXgL2LK8J2Vpw-18" value="+ checkCircuit(): boolean" style="text;html=1;align=left;verticalAlign=middle;resizable=0;points=[];autosize=1;strokeColor=none;fillColor=none;" vertex="1" parent="OuopKhXZXgL2LK8J2Vpw-12">
          <mxGeometry y="142" width="200" height="30" as="geometry" />
        </mxCell>
        <mxCell id="OuopKhXZXgL2LK8J2Vpw-19" value="+ putGate(gate: Gate): boolean" style="text;html=1;align=left;verticalAlign=middle;resizable=0;points=[];autosize=1;strokeColor=none;fillColor=none;" vertex="1" parent="OuopKhXZXgL2LK8J2Vpw-12">
          <mxGeometry y="172" width="200" height="30" as="geometry" />
        </mxCell>
        <mxCell id="OuopKhXZXgL2LK8J2Vpw-20" value="GameManager" style="swimlane;fontStyle=2;align=center;verticalAlign=top;childLayout=stackLayout;horizontal=1;startSize=26;horizontalStack=0;resizeParent=1;resizeLast=0;collapsible=1;marginBottom=0;rounded=0;shadow=0;strokeWidth=1;" vertex="1" parent="1">
          <mxGeometry x="850" y="1180" width="210" height="160" as="geometry">
            <mxRectangle x="230" y="140" width="160" height="26" as="alternateBounds" />
          </mxGeometry>
        </mxCell>
        <mxCell id="OuopKhXZXgL2LK8J2Vpw-21" value="- currentLevel: int" style="text;html=1;align=left;verticalAlign=middle;resizable=0;points=[];autosize=1;strokeColor=none;fillColor=none;" vertex="1" parent="OuopKhXZXgL2LK8J2Vpw-20">
          <mxGeometry y="26" width="210" height="30" as="geometry" />
        </mxCell>
        <mxCell id="OuopKhXZXgL2LK8J2Vpw-22" value="" style="line;html=1;strokeWidth=1;align=left;verticalAlign=middle;spacingTop=-1;spacingLeft=3;spacingRight=3;rotatable=0;labelPosition=right;points=[];portConstraint=eastwest;" vertex="1" parent="OuopKhXZXgL2LK8J2Vpw-20">
          <mxGeometry y="56" width="210" height="8" as="geometry" />
        </mxCell>
        <mxCell id="OuopKhXZXgL2LK8J2Vpw-23" value="+ uploadProgress(user: User)" style="text;html=1;align=left;verticalAlign=middle;resizable=0;points=[];autosize=1;strokeColor=none;fillColor=none;" vertex="1" parent="OuopKhXZXgL2LK8J2Vpw-20">
          <mxGeometry y="64" width="210" height="30" as="geometry" />
        </mxCell>
        <mxCell id="OuopKhXZXgL2LK8J2Vpw-24" value="+ getCurrentLevel(): int" style="text;html=1;align=left;verticalAlign=middle;resizable=0;points=[];autosize=1;strokeColor=none;fillColor=none;" vertex="1" parent="OuopKhXZXgL2LK8J2Vpw-20">
          <mxGeometry y="94" width="210" height="30" as="geometry" />
        </mxCell>
        <mxCell id="OuopKhXZXgL2LK8J2Vpw-25" style="edgeStyle=orthogonalEdgeStyle;rounded=0;orthogonalLoop=1;jettySize=auto;html=1;endArrow=block;endFill=0;" edge="1" parent="1" source="OuopKhXZXgL2LK8J2Vpw-26" target="OuopKhXZXgL2LK8J2Vpw-2">
          <mxGeometry relative="1" as="geometry">
            <mxPoint x="519" y="1441" as="targetPoint" />
          </mxGeometry>
        </mxCell>
        <mxCell id="OuopKhXZXgL2LK8J2Vpw-26" value="Wire" style="swimlane;fontStyle=2;align=center;verticalAlign=top;childLayout=stackLayout;horizontal=1;startSize=26;horizontalStack=0;resizeParent=1;resizeLast=0;collapsible=1;marginBottom=0;rounded=0;shadow=0;strokeWidth=1;" vertex="1" parent="1">
          <mxGeometry x="440" y="1569" width="160" height="80" as="geometry">
            <mxRectangle x="230" y="140" width="160" height="26" as="alternateBounds" />
          </mxGeometry>
        </mxCell>
        <mxCell id="OuopKhXZXgL2LK8J2Vpw-27" value="- inputs: list[1..*]" style="text;align=left;verticalAlign=top;spacingLeft=4;spacingRight=4;overflow=hidden;rotatable=0;points=[[0,0.5],[1,0.5]];portConstraint=eastwest;" vertex="1" parent="OuopKhXZXgL2LK8J2Vpw-26">
          <mxGeometry y="26" width="160" height="26" as="geometry" />
        </mxCell>
        <mxCell id="OuopKhXZXgL2LK8J2Vpw-28" value="" style="line;html=1;strokeWidth=1;align=left;verticalAlign=middle;spacingTop=-1;spacingLeft=3;spacingRight=3;rotatable=0;labelPosition=right;points=[];portConstraint=eastwest;" vertex="1" parent="OuopKhXZXgL2LK8J2Vpw-26">
          <mxGeometry y="52" width="160" height="8" as="geometry" />
        </mxCell>
        <mxCell id="OuopKhXZXgL2LK8J2Vpw-29" value="Gate" style="swimlane;fontStyle=2;align=center;verticalAlign=top;childLayout=stackLayout;horizontal=1;startSize=26;horizontalStack=0;resizeParent=1;resizeLast=0;collapsible=1;marginBottom=0;rounded=0;shadow=0;strokeWidth=1;" vertex="1" parent="1">
          <mxGeometry x="194" y="1481" width="160" height="164" as="geometry">
            <mxRectangle x="230" y="140" width="160" height="26" as="alternateBounds" />
          </mxGeometry>
        </mxCell>
        <mxCell id="OuopKhXZXgL2LK8J2Vpw-30" value="" style="line;html=1;strokeWidth=1;align=left;verticalAlign=middle;spacingTop=-1;spacingLeft=3;spacingRight=3;rotatable=0;labelPosition=right;points=[];portConstraint=eastwest;" vertex="1" parent="OuopKhXZXgL2LK8J2Vpw-29">
          <mxGeometry y="26" width="160" height="8" as="geometry" />
        </mxCell>
        <mxCell id="OuopKhXZXgL2LK8J2Vpw-31" value="+ CheckInputs(type): bool" style="text;strokeColor=none;fillColor=none;align=left;verticalAlign=top;spacingLeft=4;spacingRight=4;overflow=hidden;rotatable=0;points=[[0,0.5],[1,0.5]];portConstraint=eastwest;whiteSpace=wrap;html=1;" vertex="1" parent="OuopKhXZXgL2LK8J2Vpw-29">
          <mxGeometry y="34" width="160" height="26" as="geometry" />
        </mxCell>
        <mxCell id="OuopKhXZXgL2LK8J2Vpw-32" value="- SendOutputs()" style="text;strokeColor=none;fillColor=none;align=left;verticalAlign=top;spacingLeft=4;spacingRight=4;overflow=hidden;rotatable=0;points=[[0,0.5],[1,0.5]];portConstraint=eastwest;whiteSpace=wrap;html=1;" vertex="1" parent="OuopKhXZXgL2LK8J2Vpw-29">
          <mxGeometry y="60" width="160" height="26" as="geometry" />
        </mxCell>
        <mxCell id="OuopKhXZXgL2LK8J2Vpw-33" value="Light" style="swimlane;fontStyle=2;align=center;verticalAlign=top;childLayout=stackLayout;horizontal=1;startSize=26;horizontalStack=0;resizeParent=1;resizeLast=0;collapsible=1;marginBottom=0;rounded=0;shadow=0;strokeWidth=1;" vertex="1" parent="1">
          <mxGeometry x="663" y="1481" width="160" height="80" as="geometry">
            <mxRectangle x="230" y="140" width="160" height="26" as="alternateBounds" />
          </mxGeometry>
        </mxCell>
        <mxCell id="OuopKhXZXgL2LK8J2Vpw-34" value="" style="line;html=1;strokeWidth=1;align=left;verticalAlign=middle;spacingTop=-1;spacingLeft=3;spacingRight=3;rotatable=0;labelPosition=right;points=[];portConstraint=eastwest;" vertex="1" parent="OuopKhXZXgL2LK8J2Vpw-33">
          <mxGeometry y="26" width="160" height="8" as="geometry" />
        </mxCell>
        <mxCell id="OuopKhXZXgL2LK8J2Vpw-35" value="- CheckGame():Boolean" style="text;strokeColor=none;fillColor=none;align=left;verticalAlign=top;spacingLeft=4;spacingRight=4;overflow=hidden;rotatable=0;points=[[0,0.5],[1,0.5]];portConstraint=eastwest;whiteSpace=wrap;html=1;" vertex="1" parent="OuopKhXZXgL2LK8J2Vpw-33">
          <mxGeometry y="34" width="160" height="26" as="geometry" />
        </mxCell>
        <mxCell id="OuopKhXZXgL2LK8J2Vpw-36" style="edgeStyle=orthogonalEdgeStyle;rounded=0;orthogonalLoop=1;jettySize=auto;html=1;endArrow=block;endFill=0;entryX=0.994;entryY=0.726;entryDx=0;entryDy=0;entryPerimeter=0;" edge="1" parent="1" source="OuopKhXZXgL2LK8J2Vpw-35" target="OuopKhXZXgL2LK8J2Vpw-27">
          <mxGeometry relative="1" as="geometry" />
        </mxCell>
        <mxCell id="OuopKhXZXgL2LK8J2Vpw-37" style="edgeStyle=orthogonalEdgeStyle;rounded=0;orthogonalLoop=1;jettySize=auto;html=1;endArrow=block;endFill=0;exitX=1;exitY=0.09;exitDx=0;exitDy=0;exitPerimeter=0;" edge="1" parent="1" source="OuopKhXZXgL2LK8J2Vpw-29" target="OuopKhXZXgL2LK8J2Vpw-27">
          <mxGeometry relative="1" as="geometry" />
        </mxCell>
        <mxCell id="OuopKhXZXgL2LK8J2Vpw-38" value="Gate" style="swimlane;fontStyle=2;align=center;verticalAlign=top;childLayout=stackLayout;horizontal=1;startSize=26;horizontalStack=0;resizeParent=1;resizeLast=0;collapsible=1;marginBottom=0;rounded=0;shadow=0;strokeWidth=1;" vertex="1" parent="1">
          <mxGeometry x="878" y="1413" width="160" height="246" as="geometry">
            <mxRectangle x="480" y="600" width="160" height="26" as="alternateBounds" />
          </mxGeometry>
        </mxCell>
        <mxCell id="OuopKhXZXgL2LK8J2Vpw-39" value="- Type: enum" style="text;align=left;verticalAlign=top;spacingLeft=4;spacingRight=4;overflow=hidden;rotatable=0;points=[[0,0.5],[1,0.5]];portConstraint=eastwest;" vertex="1" parent="OuopKhXZXgL2LK8J2Vpw-38">
          <mxGeometry y="26" width="160" height="26" as="geometry" />
        </mxCell>
        <mxCell id="OuopKhXZXgL2LK8J2Vpw-40" value="- type: Type" style="text;align=left;verticalAlign=middle;spacingLeft=4;spacingRight=4;overflow=hidden;rotatable=0;points=[[0,0.5],[1,0.5]];portConstraint=eastwest;" vertex="1" parent="OuopKhXZXgL2LK8J2Vpw-38">
          <mxGeometry y="52" width="160" height="26" as="geometry" />
        </mxCell>
        <mxCell id="OuopKhXZXgL2LK8J2Vpw-41" value="- state: Boolean&amp;nbsp;" style="text;html=1;align=left;verticalAlign=middle;resizable=0;points=[];autosize=1;strokeColor=none;fillColor=none;" vertex="1" parent="OuopKhXZXgL2LK8J2Vpw-38">
          <mxGeometry y="78" width="160" height="26" as="geometry" />
        </mxCell>
        <mxCell id="OuopKhXZXgL2LK8J2Vpw-42" value="- observers: Gate[]" style="text;html=1;align=left;verticalAlign=middle;resizable=0;points=[];autosize=1;strokeColor=none;fillColor=none;" vertex="1" parent="OuopKhXZXgL2LK8J2Vpw-38">
          <mxGeometry y="104" width="160" height="26" as="geometry" />
        </mxCell>
        <mxCell id="OuopKhXZXgL2LK8J2Vpw-43" value="" style="line;html=1;strokeWidth=1;align=left;verticalAlign=middle;spacingTop=-1;spacingLeft=3;spacingRight=3;rotatable=0;labelPosition=right;points=[];portConstraint=eastwest;" vertex="1" parent="OuopKhXZXgL2LK8J2Vpw-38">
          <mxGeometry y="130" width="160" height="8" as="geometry" />
        </mxCell>
        <mxCell id="OuopKhXZXgL2LK8J2Vpw-44" value="+Gate(type): gate" style="text;html=1;align=left;verticalAlign=middle;resizable=0;points=[];autosize=1;strokeColor=none;fillColor=none;" vertex="1" parent="OuopKhXZXgL2LK8J2Vpw-38">
          <mxGeometry y="138" width="160" height="26" as="geometry" />
        </mxCell>
        <mxCell id="Oc8KOJMVeh3YOnucM4FR-1" value="Database" style="swimlane;fontStyle=2;align=center;verticalAlign=top;childLayout=stackLayout;horizontal=1;startSize=26;horizontalStack=0;resizeParent=1;resizeLast=0;collapsible=1;marginBottom=0;rounded=0;shadow=0;strokeWidth=1;" vertex="1" parent="1">
          <mxGeometry x="890" y="600" width="618" height="521" as="geometry">
            <mxRectangle x="230" y="140" width="160" height="26" as="alternateBounds" />
          </mxGeometry>
        </mxCell>
        <mxCell id="Oc8KOJMVeh3YOnucM4FR-2" value="&lt;div&gt;&lt;span style=&quot;background-color: initial;&quot;&gt;- StringDB: String&lt;/span&gt;&lt;/div&gt;" style="text;html=1;align=left;verticalAlign=middle;resizable=0;points=[];autosize=1;strokeColor=none;fillColor=none;" vertex="1" parent="Oc8KOJMVeh3YOnucM4FR-1">
          <mxGeometry y="26" width="618" height="26" as="geometry" />
        </mxCell>
        <mxCell id="Oc8KOJMVeh3YOnucM4FR-3" value="" style="line;html=1;strokeWidth=1;align=left;verticalAlign=middle;spacingTop=-1;spacingLeft=3;spacingRight=3;rotatable=0;labelPosition=right;points=[];portConstraint=eastwest;" vertex="1" parent="Oc8KOJMVeh3YOnucM4FR-1">
          <mxGeometry y="52" width="618" height="8" as="geometry" />
        </mxCell>
        <mxCell id="Oc8KOJMVeh3YOnucM4FR-4" value="&lt;div&gt;&lt;span style=&quot;background-color: initial;&quot;&gt;+ createDB(): void&lt;/span&gt;&lt;/div&gt;" style="text;html=1;align=left;verticalAlign=middle;resizable=0;points=[];autosize=1;strokeColor=none;fillColor=none;" vertex="1" parent="Oc8KOJMVeh3YOnucM4FR-1">
          <mxGeometry y="60" width="618" height="26" as="geometry" />
        </mxCell>
        <mxCell id="Oc8KOJMVeh3YOnucM4FR-5" value="&lt;div style=&quot;border-color: var(--border-color);&quot;&gt;+ addPlayer(name: String, password: String, email: String, ClassID: int): void&lt;/div&gt;" style="text;html=1;align=left;verticalAlign=middle;resizable=0;points=[];autosize=1;strokeColor=none;fillColor=none;" vertex="1" parent="Oc8KOJMVeh3YOnucM4FR-1">
          <mxGeometry y="86" width="618" height="26" as="geometry" />
        </mxCell>
        <mxCell id="Oc8KOJMVeh3YOnucM4FR-6" value="&lt;div style=&quot;border-color: var(--border-color);&quot;&gt;+ addAdmin(name: String, password: String, email: String): void&lt;/div&gt;" style="text;html=1;align=left;verticalAlign=middle;resizable=0;points=[];autosize=1;strokeColor=none;fillColor=none;" vertex="1" parent="Oc8KOJMVeh3YOnucM4FR-1">
          <mxGeometry y="112" width="618" height="26" as="geometry" />
        </mxCell>
        <mxCell id="Oc8KOJMVeh3YOnucM4FR-7" value="+ addClassroom(name: String, AdminID: int): void" style="text;html=1;align=left;verticalAlign=middle;resizable=0;points=[];autosize=1;strokeColor=none;fillColor=none;" vertex="1" parent="Oc8KOJMVeh3YOnucM4FR-1">
          <mxGeometry y="138" width="618" height="26" as="geometry" />
        </mxCell>
        <mxCell id="Oc8KOJMVeh3YOnucM4FR-8" value="&lt;div style=&quot;border-color: var(--border-color);&quot;&gt;+ updatePlayerSandbox(PlayerID: int, projectTitle: String, saveState: String): void&lt;/div&gt;" style="text;html=1;align=left;verticalAlign=middle;resizable=0;points=[];autosize=1;strokeColor=none;fillColor=none;" vertex="1" parent="Oc8KOJMVeh3YOnucM4FR-1">
          <mxGeometry y="164" width="618" height="26" as="geometry" />
        </mxCell>
        <mxCell id="Oc8KOJMVeh3YOnucM4FR-9" value="+ updatePlayerProgress(LevelID: int, LevelScore: int, CurrentLevelSaveState: String): void" style="text;html=1;align=left;verticalAlign=middle;resizable=0;points=[];autosize=1;strokeColor=none;fillColor=none;" vertex="1" parent="Oc8KOJMVeh3YOnucM4FR-1">
          <mxGeometry y="190" width="618" height="26" as="geometry" />
        </mxCell>
        <mxCell id="Oc8KOJMVeh3YOnucM4FR-10" value="&lt;div style=&quot;border-color: var(--border-color);&quot;&gt;+ updatePlayer(PlayerID: int, name: String, password: String, email: String, ClassID: int, inTutorial: boolean): void&lt;/div&gt;" style="text;html=1;align=left;verticalAlign=middle;resizable=0;points=[];autosize=1;strokeColor=none;fillColor=none;" vertex="1" parent="Oc8KOJMVeh3YOnucM4FR-1">
          <mxGeometry y="216" width="618" height="26" as="geometry" />
        </mxCell>
        <mxCell id="Oc8KOJMVeh3YOnucM4FR-11" value="+ updateAdmin(AdminID: int, name: String, password: String, email: String): void" style="text;html=1;align=left;verticalAlign=middle;resizable=0;points=[];autosize=1;strokeColor=none;fillColor=none;" vertex="1" parent="Oc8KOJMVeh3YOnucM4FR-1">
          <mxGeometry y="242" width="618" height="26" as="geometry" />
        </mxCell>
        <mxCell id="Oc8KOJMVeh3YOnucM4FR-12" value="&lt;div style=&quot;border-color: var(--border-color);&quot;&gt;+ updateHighScore(PlayerID: int, UserScore: int): void&lt;/div&gt;" style="text;html=1;align=left;verticalAlign=middle;resizable=0;points=[];autosize=1;strokeColor=none;fillColor=none;" vertex="1" parent="Oc8KOJMVeh3YOnucM4FR-1">
          <mxGeometry y="268" width="618" height="26" as="geometry" />
        </mxCell>
        <mxCell id="Oc8KOJMVeh3YOnucM4FR-13" value="&lt;div style=&quot;border-color: var(--border-color);&quot;&gt;+ deletePlayer(PlayerID: int): void&lt;/div&gt;" style="text;html=1;align=left;verticalAlign=middle;resizable=0;points=[];autosize=1;strokeColor=none;fillColor=none;" vertex="1" parent="Oc8KOJMVeh3YOnucM4FR-1">
          <mxGeometry y="294" width="618" height="26" as="geometry" />
        </mxCell>
        <mxCell id="Oc8KOJMVeh3YOnucM4FR-14" value="&lt;div style=&quot;border-color: var(--border-color);&quot;&gt;+ printDB(): void&amp;nbsp;&lt;/div&gt;" style="text;html=1;align=left;verticalAlign=middle;resizable=0;points=[];autosize=1;strokeColor=none;fillColor=none;" vertex="1" parent="Oc8KOJMVeh3YOnucM4FR-1">
          <mxGeometry y="320" width="618" height="26" as="geometry" />
        </mxCell>
        <mxCell id="Oc8KOJMVeh3YOnucM4FR-15" value="&lt;div style=&quot;border-color: var(--border-color);&quot;&gt;+ getAdminID(ClassID, int): int&lt;/div&gt;" style="text;html=1;align=left;verticalAlign=middle;resizable=0;points=[];autosize=1;strokeColor=none;fillColor=none;" vertex="1" parent="Oc8KOJMVeh3YOnucM4FR-1">
          <mxGeometry y="346" width="618" height="26" as="geometry" />
        </mxCell>
        <mxCell id="Oc8KOJMVeh3YOnucM4FR-16" value="&lt;div style=&quot;border-color: var(--border-color);&quot;&gt;+ getSandboxID(PlayerID: int): int&lt;/div&gt;" style="text;html=1;align=left;verticalAlign=middle;resizable=0;points=[];autosize=1;strokeColor=none;fillColor=none;" vertex="1" parent="Oc8KOJMVeh3YOnucM4FR-1">
          <mxGeometry y="372" width="618" height="26" as="geometry" />
        </mxCell>
        <mxCell id="Oc8KOJMVeh3YOnucM4FR-17" value="&lt;div style=&quot;border-color: var(--border-color);&quot;&gt;+ getLevelID(PlayerID: int, currentLevel: int): int&lt;/div&gt;" style="text;html=1;align=left;verticalAlign=middle;resizable=0;points=[];autosize=1;strokeColor=none;fillColor=none;" vertex="1" parent="Oc8KOJMVeh3YOnucM4FR-1">
          <mxGeometry y="398" width="618" height="26" as="geometry" />
        </mxCell>
        <mxCell id="Oc8KOJMVeh3YOnucM4FR-18" value="&lt;div style=&quot;border-color: var(--border-color);&quot;&gt;+ getHighScore(PlayerID: int): int&lt;/div&gt;" style="text;html=1;align=left;verticalAlign=middle;resizable=0;points=[];autosize=1;strokeColor=none;fillColor=none;" vertex="1" parent="Oc8KOJMVeh3YOnucM4FR-1">
          <mxGeometry y="424" width="618" height="26" as="geometry" />
        </mxCell>
        <mxCell id="Oc8KOJMVeh3YOnucM4FR-19" value="+ resetDataBase(): int&amp;nbsp;" style="text;html=1;align=left;verticalAlign=middle;resizable=0;points=[];autosize=1;strokeColor=none;fillColor=none;" vertex="1" parent="Oc8KOJMVeh3YOnucM4FR-1">
          <mxGeometry y="450" width="618" height="26" as="geometry" />
        </mxCell>
        <mxCell id="Oc8KOJMVeh3YOnucM4FR-20" style="edgeStyle=orthogonalEdgeStyle;rounded=0;orthogonalLoop=1;jettySize=auto;html=1;entryX=0.003;entryY=0.692;entryDx=0;entryDy=0;entryPerimeter=0;" edge="1" parent="1" source="6ZOBeFvuRxk5Ak8Zgt_7-53" target="Oc8KOJMVeh3YOnucM4FR-11">
          <mxGeometry relative="1" as="geometry" />
        </mxCell>
        <mxCell id="Oc8KOJMVeh3YOnucM4FR-24" style="edgeStyle=orthogonalEdgeStyle;rounded=0;orthogonalLoop=1;jettySize=auto;html=1;" edge="1" parent="1" source="6ZOBeFvuRxk5Ak8Zgt_7-25" target="6ZOBeFvuRxk5Ak8Zgt_7-30">
          <mxGeometry relative="1" as="geometry" />
        </mxCell>
        <mxCell id="Oc8KOJMVeh3YOnucM4FR-27" style="edgeStyle=orthogonalEdgeStyle;rounded=0;orthogonalLoop=1;jettySize=auto;html=1;entryX=0;entryY=0.5;entryDx=0;entryDy=0;" edge="1" parent="1" source="6ZOBeFvuRxk5Ak8Zgt_7-7" target="6ZOBeFvuRxk5Ak8Zgt_7-24">
          <mxGeometry relative="1" as="geometry" />
        </mxCell>
      </root>
    </mxGraphModel>
  </diagram>
  <diagram id="PPtaOReUI2DQH_ym5e8L" name="Gameplay">
    <mxGraphModel dx="1985" dy="-624" grid="1" gridSize="10" guides="1" tooltips="1" connect="1" arrows="1" fold="1" page="1" pageScale="1" pageWidth="1169" pageHeight="827" math="0" shadow="0">
      <root>
        <mxCell id="0" />
        <mxCell id="1" parent="0" />
        <mxCell id="YXIm0XgeQtmzGzSTkGQB-1" style="edgeStyle=orthogonalEdgeStyle;rounded=0;orthogonalLoop=1;jettySize=auto;html=1;entryX=0.5;entryY=1;entryDx=0;entryDy=0;exitX=0.999;exitY=0.887;exitDx=0;exitDy=0;startArrow=classic;startFill=1;exitPerimeter=0;" parent="1" source="YXIm0XgeQtmzGzSTkGQB-5" target="YXIm0XgeQtmzGzSTkGQB-20" edge="1">
          <mxGeometry relative="1" as="geometry">
            <Array as="points">
              <mxPoint x="806" y="1915" />
              <mxPoint x="806" y="2000" />
              <mxPoint x="995" y="2000" />
            </Array>
          </mxGeometry>
        </mxCell>
        <mxCell id="YXIm0XgeQtmzGzSTkGQB-2" value="Switch" style="swimlane;fontStyle=2;align=center;verticalAlign=top;childLayout=stackLayout;horizontal=1;startSize=26;horizontalStack=0;resizeParent=1;resizeLast=0;collapsible=1;marginBottom=0;rounded=0;shadow=0;strokeWidth=1;" parent="1" vertex="1">
          <mxGeometry x="480" y="1840" width="160" height="268" as="geometry">
            <mxRectangle x="230" y="140" width="160" height="26" as="alternateBounds" />
          </mxGeometry>
        </mxCell>
        <mxCell id="YXIm0XgeQtmzGzSTkGQB-3" value="- light: Boolean" style="text;align=left;verticalAlign=top;spacingLeft=4;spacingRight=4;overflow=hidden;rotatable=0;points=[[0,0.5],[1,0.5]];portConstraint=eastwest;" parent="YXIm0XgeQtmzGzSTkGQB-2" vertex="1">
          <mxGeometry y="26" width="160" height="26" as="geometry" />
        </mxCell>
        <mxCell id="YXIm0XgeQtmzGzSTkGQB-4" value="- type: Gatetype" style="text;strokeColor=none;fillColor=none;align=left;verticalAlign=top;spacingLeft=4;spacingRight=4;overflow=hidden;rotatable=0;points=[[0,0.5],[1,0.5]];portConstraint=eastwest;whiteSpace=wrap;html=1;" parent="YXIm0XgeQtmzGzSTkGQB-2" vertex="1">
          <mxGeometry y="52" width="160" height="26" as="geometry" />
        </mxCell>
        <mxCell id="YXIm0XgeQtmzGzSTkGQB-5" value="- outputs: list[*]" style="text;align=left;verticalAlign=top;spacingLeft=4;spacingRight=4;overflow=hidden;rotatable=0;points=[[0,0.5],[1,0.5]];portConstraint=eastwest;" parent="YXIm0XgeQtmzGzSTkGQB-2" vertex="1">
          <mxGeometry y="78" width="160" height="26" as="geometry" />
        </mxCell>
        <mxCell id="YXIm0XgeQtmzGzSTkGQB-6" value="" style="line;html=1;strokeWidth=1;align=left;verticalAlign=middle;spacingTop=-1;spacingLeft=3;spacingRight=3;rotatable=0;labelPosition=right;points=[];portConstraint=eastwest;" parent="YXIm0XgeQtmzGzSTkGQB-2" vertex="1">
          <mxGeometry y="104" width="160" height="8" as="geometry" />
        </mxCell>
        <mxCell id="YXIm0XgeQtmzGzSTkGQB-7" value="+ getType(): Gatetype" style="text;html=1;align=left;verticalAlign=middle;resizable=0;points=[];autosize=1;strokeColor=none;fillColor=none;" parent="YXIm0XgeQtmzGzSTkGQB-2" vertex="1">
          <mxGeometry y="112" width="160" height="26" as="geometry" />
        </mxCell>
        <mxCell id="YXIm0XgeQtmzGzSTkGQB-8" value="+ GetLight(): Boolean" style="text;html=1;align=left;verticalAlign=middle;resizable=0;points=[];autosize=1;strokeColor=none;fillColor=none;" parent="YXIm0XgeQtmzGzSTkGQB-2" vertex="1">
          <mxGeometry y="138" width="160" height="26" as="geometry" />
        </mxCell>
        <mxCell id="YXIm0XgeQtmzGzSTkGQB-9" value="+ SetLight(light: Boolean)" style="text;strokeColor=none;fillColor=none;align=left;verticalAlign=top;spacingLeft=4;spacingRight=4;overflow=hidden;rotatable=0;points=[[0,0.5],[1,0.5]];portConstraint=eastwest;whiteSpace=wrap;html=1;" parent="YXIm0XgeQtmzGzSTkGQB-2" vertex="1">
          <mxGeometry y="164" width="160" height="26" as="geometry" />
        </mxCell>
        <mxCell id="YXIm0XgeQtmzGzSTkGQB-10" value="+ SendOutput()" style="text;strokeColor=none;fillColor=none;align=left;verticalAlign=top;spacingLeft=4;spacingRight=4;overflow=hidden;rotatable=0;points=[[0,0.5],[1,0.5]];portConstraint=eastwest;whiteSpace=wrap;html=1;" parent="YXIm0XgeQtmzGzSTkGQB-2" vertex="1">
          <mxGeometry y="190" width="160" height="26" as="geometry" />
        </mxCell>
        <mxCell id="YXIm0XgeQtmzGzSTkGQB-11" style="edgeStyle=orthogonalEdgeStyle;rounded=0;orthogonalLoop=1;jettySize=auto;html=1;entryX=0;entryY=0.5;entryDx=0;entryDy=0;exitX=0.5;exitY=0;exitDx=0;exitDy=0;startArrow=classic;startFill=1;" parent="1" source="YXIm0XgeQtmzGzSTkGQB-12" target="YXIm0XgeQtmzGzSTkGQB-5" edge="1">
          <mxGeometry relative="1" as="geometry">
            <mxPoint x="160" y="1860" as="sourcePoint" />
          </mxGeometry>
        </mxCell>
        <mxCell id="YXIm0XgeQtmzGzSTkGQB-12" value="Level" style="swimlane;fontStyle=2;align=center;verticalAlign=top;childLayout=stackLayout;horizontal=1;startSize=26;horizontalStack=0;resizeParent=1;resizeLast=0;collapsible=1;marginBottom=0;rounded=0;shadow=0;strokeWidth=1;" parent="1" vertex="1">
          <mxGeometry x="30" y="1820" width="200" height="202" as="geometry">
            <mxRectangle x="40" y="640" width="160" height="26" as="alternateBounds" />
          </mxGeometry>
        </mxCell>
        <mxCell id="YXIm0XgeQtmzGzSTkGQB-13" value="- user: String" style="text;align=left;verticalAlign=top;spacingLeft=4;spacingRight=4;overflow=hidden;rotatable=0;points=[[0,0.5],[1,0.5]];portConstraint=eastwest;" parent="YXIm0XgeQtmzGzSTkGQB-12" vertex="1">
          <mxGeometry y="26" width="200" height="26" as="geometry" />
        </mxCell>
        <mxCell id="YXIm0XgeQtmzGzSTkGQB-14" value="- endLight: Light" style="text;strokeColor=none;fillColor=none;align=left;verticalAlign=top;spacingLeft=4;spacingRight=4;overflow=hidden;rotatable=0;points=[[0,0.5],[1,0.5]];portConstraint=eastwest;whiteSpace=wrap;html=1;" parent="YXIm0XgeQtmzGzSTkGQB-12" vertex="1">
          <mxGeometry y="52" width="200" height="26" as="geometry" />
        </mxCell>
        <mxCell id="YXIm0XgeQtmzGzSTkGQB-15" value="- Gatetype: enum" style="text;strokeColor=none;fillColor=none;align=left;verticalAlign=top;spacingLeft=4;spacingRight=4;overflow=hidden;rotatable=0;points=[[0,0.5],[1,0.5]];portConstraint=eastwest;whiteSpace=wrap;html=1;" parent="YXIm0XgeQtmzGzSTkGQB-12" vertex="1">
          <mxGeometry y="78" width="200" height="26" as="geometry" />
        </mxCell>
        <mxCell id="YXIm0XgeQtmzGzSTkGQB-16" value="" style="line;html=1;strokeWidth=1;align=left;verticalAlign=middle;spacingTop=-1;spacingLeft=3;spacingRight=3;rotatable=0;labelPosition=right;points=[];portConstraint=eastwest;" parent="YXIm0XgeQtmzGzSTkGQB-12" vertex="1">
          <mxGeometry y="104" width="200" height="8" as="geometry" />
        </mxCell>
        <mxCell id="YXIm0XgeQtmzGzSTkGQB-17" value="+ read_in_file(): boolean" style="text;html=1;align=left;verticalAlign=middle;resizable=0;points=[];autosize=1;strokeColor=none;fillColor=none;" parent="YXIm0XgeQtmzGzSTkGQB-12" vertex="1">
          <mxGeometry y="112" width="200" height="30" as="geometry" />
        </mxCell>
        <mxCell id="YXIm0XgeQtmzGzSTkGQB-18" value="+ checkCircuit(): boolean" style="text;html=1;align=left;verticalAlign=middle;resizable=0;points=[];autosize=1;strokeColor=none;fillColor=none;" parent="YXIm0XgeQtmzGzSTkGQB-12" vertex="1">
          <mxGeometry y="142" width="200" height="30" as="geometry" />
        </mxCell>
        <mxCell id="YXIm0XgeQtmzGzSTkGQB-19" value="+ putGate(gate: Gate): boolean" style="text;html=1;align=left;verticalAlign=middle;resizable=0;points=[];autosize=1;strokeColor=none;fillColor=none;" parent="YXIm0XgeQtmzGzSTkGQB-12" vertex="1">
          <mxGeometry y="172" width="200" height="30" as="geometry" />
        </mxCell>
        <mxCell id="YXIm0XgeQtmzGzSTkGQB-20" value="GameManager" style="swimlane;fontStyle=2;align=center;verticalAlign=top;childLayout=stackLayout;horizontal=1;startSize=26;horizontalStack=0;resizeParent=1;resizeLast=0;collapsible=1;marginBottom=0;rounded=0;shadow=0;strokeWidth=1;" parent="1" vertex="1">
          <mxGeometry x="890" y="1820" width="210" height="160" as="geometry">
            <mxRectangle x="230" y="140" width="160" height="26" as="alternateBounds" />
          </mxGeometry>
        </mxCell>
        <mxCell id="YXIm0XgeQtmzGzSTkGQB-21" value="- currentLevel: int" style="text;html=1;align=left;verticalAlign=middle;resizable=0;points=[];autosize=1;strokeColor=none;fillColor=none;" parent="YXIm0XgeQtmzGzSTkGQB-20" vertex="1">
          <mxGeometry y="26" width="210" height="30" as="geometry" />
        </mxCell>
        <mxCell id="YXIm0XgeQtmzGzSTkGQB-22" value="" style="line;html=1;strokeWidth=1;align=left;verticalAlign=middle;spacingTop=-1;spacingLeft=3;spacingRight=3;rotatable=0;labelPosition=right;points=[];portConstraint=eastwest;" parent="YXIm0XgeQtmzGzSTkGQB-20" vertex="1">
          <mxGeometry y="56" width="210" height="8" as="geometry" />
        </mxCell>
        <mxCell id="YXIm0XgeQtmzGzSTkGQB-23" value="+ uploadProgress(user: User)" style="text;html=1;align=left;verticalAlign=middle;resizable=0;points=[];autosize=1;strokeColor=none;fillColor=none;" parent="YXIm0XgeQtmzGzSTkGQB-20" vertex="1">
          <mxGeometry y="64" width="210" height="30" as="geometry" />
        </mxCell>
        <mxCell id="YXIm0XgeQtmzGzSTkGQB-24" value="+ getCurrentLevel(): int" style="text;html=1;align=left;verticalAlign=middle;resizable=0;points=[];autosize=1;strokeColor=none;fillColor=none;" parent="YXIm0XgeQtmzGzSTkGQB-20" vertex="1">
          <mxGeometry y="94" width="210" height="30" as="geometry" />
        </mxCell>
        <mxCell id="YXIm0XgeQtmzGzSTkGQB-25" style="edgeStyle=orthogonalEdgeStyle;rounded=0;orthogonalLoop=1;jettySize=auto;html=1;endArrow=block;endFill=0;" parent="1" source="YXIm0XgeQtmzGzSTkGQB-26" target="YXIm0XgeQtmzGzSTkGQB-2" edge="1">
          <mxGeometry relative="1" as="geometry">
            <mxPoint x="559" y="2081" as="targetPoint" />
          </mxGeometry>
        </mxCell>
        <mxCell id="YXIm0XgeQtmzGzSTkGQB-26" value="Wire" style="swimlane;fontStyle=2;align=center;verticalAlign=top;childLayout=stackLayout;horizontal=1;startSize=26;horizontalStack=0;resizeParent=1;resizeLast=0;collapsible=1;marginBottom=0;rounded=0;shadow=0;strokeWidth=1;" parent="1" vertex="1">
          <mxGeometry x="480" y="2209" width="160" height="80" as="geometry">
            <mxRectangle x="230" y="140" width="160" height="26" as="alternateBounds" />
          </mxGeometry>
        </mxCell>
        <mxCell id="YXIm0XgeQtmzGzSTkGQB-27" value="- inputs: list[1..*]" style="text;align=left;verticalAlign=top;spacingLeft=4;spacingRight=4;overflow=hidden;rotatable=0;points=[[0,0.5],[1,0.5]];portConstraint=eastwest;" parent="YXIm0XgeQtmzGzSTkGQB-26" vertex="1">
          <mxGeometry y="26" width="160" height="26" as="geometry" />
        </mxCell>
        <mxCell id="YXIm0XgeQtmzGzSTkGQB-28" value="" style="line;html=1;strokeWidth=1;align=left;verticalAlign=middle;spacingTop=-1;spacingLeft=3;spacingRight=3;rotatable=0;labelPosition=right;points=[];portConstraint=eastwest;" parent="YXIm0XgeQtmzGzSTkGQB-26" vertex="1">
          <mxGeometry y="52" width="160" height="8" as="geometry" />
        </mxCell>
        <mxCell id="YXIm0XgeQtmzGzSTkGQB-29" value="Gate" style="swimlane;fontStyle=2;align=center;verticalAlign=top;childLayout=stackLayout;horizontal=1;startSize=26;horizontalStack=0;resizeParent=1;resizeLast=0;collapsible=1;marginBottom=0;rounded=0;shadow=0;strokeWidth=1;" parent="1" vertex="1">
          <mxGeometry x="234" y="2121" width="160" height="164" as="geometry">
            <mxRectangle x="230" y="140" width="160" height="26" as="alternateBounds" />
          </mxGeometry>
        </mxCell>
        <mxCell id="YXIm0XgeQtmzGzSTkGQB-30" value="" style="line;html=1;strokeWidth=1;align=left;verticalAlign=middle;spacingTop=-1;spacingLeft=3;spacingRight=3;rotatable=0;labelPosition=right;points=[];portConstraint=eastwest;" parent="YXIm0XgeQtmzGzSTkGQB-29" vertex="1">
          <mxGeometry y="26" width="160" height="8" as="geometry" />
        </mxCell>
        <mxCell id="YXIm0XgeQtmzGzSTkGQB-31" value="+ CheckInputs(type): bool" style="text;strokeColor=none;fillColor=none;align=left;verticalAlign=top;spacingLeft=4;spacingRight=4;overflow=hidden;rotatable=0;points=[[0,0.5],[1,0.5]];portConstraint=eastwest;whiteSpace=wrap;html=1;" parent="YXIm0XgeQtmzGzSTkGQB-29" vertex="1">
          <mxGeometry y="34" width="160" height="26" as="geometry" />
        </mxCell>
        <mxCell id="YXIm0XgeQtmzGzSTkGQB-32" value="- SendOutputs()" style="text;strokeColor=none;fillColor=none;align=left;verticalAlign=top;spacingLeft=4;spacingRight=4;overflow=hidden;rotatable=0;points=[[0,0.5],[1,0.5]];portConstraint=eastwest;whiteSpace=wrap;html=1;" parent="YXIm0XgeQtmzGzSTkGQB-29" vertex="1">
          <mxGeometry y="60" width="160" height="26" as="geometry" />
        </mxCell>
        <mxCell id="YXIm0XgeQtmzGzSTkGQB-33" value="Light" style="swimlane;fontStyle=2;align=center;verticalAlign=top;childLayout=stackLayout;horizontal=1;startSize=26;horizontalStack=0;resizeParent=1;resizeLast=0;collapsible=1;marginBottom=0;rounded=0;shadow=0;strokeWidth=1;" parent="1" vertex="1">
          <mxGeometry x="703" y="2121" width="160" height="80" as="geometry">
            <mxRectangle x="230" y="140" width="160" height="26" as="alternateBounds" />
          </mxGeometry>
        </mxCell>
        <mxCell id="YXIm0XgeQtmzGzSTkGQB-34" value="" style="line;html=1;strokeWidth=1;align=left;verticalAlign=middle;spacingTop=-1;spacingLeft=3;spacingRight=3;rotatable=0;labelPosition=right;points=[];portConstraint=eastwest;" parent="YXIm0XgeQtmzGzSTkGQB-33" vertex="1">
          <mxGeometry y="26" width="160" height="8" as="geometry" />
        </mxCell>
        <mxCell id="YXIm0XgeQtmzGzSTkGQB-35" value="- CheckGame():Boolean" style="text;strokeColor=none;fillColor=none;align=left;verticalAlign=top;spacingLeft=4;spacingRight=4;overflow=hidden;rotatable=0;points=[[0,0.5],[1,0.5]];portConstraint=eastwest;whiteSpace=wrap;html=1;" parent="YXIm0XgeQtmzGzSTkGQB-33" vertex="1">
          <mxGeometry y="34" width="160" height="26" as="geometry" />
        </mxCell>
        <mxCell id="YXIm0XgeQtmzGzSTkGQB-36" style="edgeStyle=orthogonalEdgeStyle;rounded=0;orthogonalLoop=1;jettySize=auto;html=1;endArrow=block;endFill=0;entryX=0.994;entryY=0.726;entryDx=0;entryDy=0;entryPerimeter=0;" parent="1" source="YXIm0XgeQtmzGzSTkGQB-35" target="YXIm0XgeQtmzGzSTkGQB-27" edge="1">
          <mxGeometry relative="1" as="geometry" />
        </mxCell>
        <mxCell id="YXIm0XgeQtmzGzSTkGQB-37" style="edgeStyle=orthogonalEdgeStyle;rounded=0;orthogonalLoop=1;jettySize=auto;html=1;endArrow=block;endFill=0;exitX=1;exitY=0.09;exitDx=0;exitDy=0;exitPerimeter=0;" parent="1" source="YXIm0XgeQtmzGzSTkGQB-29" target="YXIm0XgeQtmzGzSTkGQB-27" edge="1">
          <mxGeometry relative="1" as="geometry" />
        </mxCell>
        <mxCell id="YXIm0XgeQtmzGzSTkGQB-38" value="Gate" style="swimlane;fontStyle=2;align=center;verticalAlign=top;childLayout=stackLayout;horizontal=1;startSize=26;horizontalStack=0;resizeParent=1;resizeLast=0;collapsible=1;marginBottom=0;rounded=0;shadow=0;strokeWidth=1;" parent="1" vertex="1">
          <mxGeometry x="918" y="2053" width="160" height="246" as="geometry">
            <mxRectangle x="480" y="600" width="160" height="26" as="alternateBounds" />
          </mxGeometry>
        </mxCell>
        <mxCell id="YXIm0XgeQtmzGzSTkGQB-39" value="- Type: enum" style="text;align=left;verticalAlign=top;spacingLeft=4;spacingRight=4;overflow=hidden;rotatable=0;points=[[0,0.5],[1,0.5]];portConstraint=eastwest;" parent="YXIm0XgeQtmzGzSTkGQB-38" vertex="1">
          <mxGeometry y="26" width="160" height="26" as="geometry" />
        </mxCell>
        <mxCell id="YXIm0XgeQtmzGzSTkGQB-40" value="- type: Type" style="text;align=left;verticalAlign=middle;spacingLeft=4;spacingRight=4;overflow=hidden;rotatable=0;points=[[0,0.5],[1,0.5]];portConstraint=eastwest;" parent="YXIm0XgeQtmzGzSTkGQB-38" vertex="1">
          <mxGeometry y="52" width="160" height="26" as="geometry" />
        </mxCell>
        <mxCell id="YXIm0XgeQtmzGzSTkGQB-41" value="- state: Boolean&amp;nbsp;" style="text;html=1;align=left;verticalAlign=middle;resizable=0;points=[];autosize=1;strokeColor=none;fillColor=none;" parent="YXIm0XgeQtmzGzSTkGQB-38" vertex="1">
          <mxGeometry y="78" width="160" height="26" as="geometry" />
        </mxCell>
        <mxCell id="YXIm0XgeQtmzGzSTkGQB-42" value="- observers: Gate[]" style="text;html=1;align=left;verticalAlign=middle;resizable=0;points=[];autosize=1;strokeColor=none;fillColor=none;" parent="YXIm0XgeQtmzGzSTkGQB-38" vertex="1">
          <mxGeometry y="104" width="160" height="26" as="geometry" />
        </mxCell>
        <mxCell id="YXIm0XgeQtmzGzSTkGQB-43" value="" style="line;html=1;strokeWidth=1;align=left;verticalAlign=middle;spacingTop=-1;spacingLeft=3;spacingRight=3;rotatable=0;labelPosition=right;points=[];portConstraint=eastwest;" parent="YXIm0XgeQtmzGzSTkGQB-38" vertex="1">
          <mxGeometry y="130" width="160" height="8" as="geometry" />
        </mxCell>
        <mxCell id="YXIm0XgeQtmzGzSTkGQB-44" value="+Gate(type): gate" style="text;html=1;align=left;verticalAlign=middle;resizable=0;points=[];autosize=1;strokeColor=none;fillColor=none;" parent="YXIm0XgeQtmzGzSTkGQB-38" vertex="1">
          <mxGeometry y="138" width="160" height="26" as="geometry" />
        </mxCell>
      </root>
    </mxGraphModel>
  </diagram>
  <diagram id="bmBrLTNK45Np6IyMdW_G" name="Database">
    <mxGraphModel dx="1588" dy="824" grid="1" gridSize="10" guides="1" tooltips="1" connect="1" arrows="1" fold="1" page="1" pageScale="1" pageWidth="1169" pageHeight="827" math="0" shadow="0">
      <root>
        <mxCell id="0" />
        <mxCell id="1" parent="0" />
        <mxCell id="uPGqjF-idKnjo2nlLllt-1" value="Database" style="swimlane;fontStyle=2;align=center;verticalAlign=top;childLayout=stackLayout;horizontal=1;startSize=26;horizontalStack=0;resizeParent=1;resizeLast=0;collapsible=1;marginBottom=0;rounded=0;shadow=0;strokeWidth=1;" parent="1" vertex="1">
          <mxGeometry x="40" y="40" width="618" height="521" as="geometry">
            <mxRectangle x="230" y="140" width="160" height="26" as="alternateBounds" />
          </mxGeometry>
        </mxCell>
        <mxCell id="uPGqjF-idKnjo2nlLllt-2" value="&lt;div&gt;&lt;span style=&quot;background-color: initial;&quot;&gt;- StringDB: String&lt;/span&gt;&lt;/div&gt;" style="text;html=1;align=left;verticalAlign=middle;resizable=0;points=[];autosize=1;strokeColor=none;fillColor=none;" parent="uPGqjF-idKnjo2nlLllt-1" vertex="1">
          <mxGeometry y="26" width="618" height="26" as="geometry" />
        </mxCell>
        <mxCell id="uPGqjF-idKnjo2nlLllt-3" value="" style="line;html=1;strokeWidth=1;align=left;verticalAlign=middle;spacingTop=-1;spacingLeft=3;spacingRight=3;rotatable=0;labelPosition=right;points=[];portConstraint=eastwest;" parent="uPGqjF-idKnjo2nlLllt-1" vertex="1">
          <mxGeometry y="52" width="618" height="8" as="geometry" />
        </mxCell>
        <mxCell id="uPGqjF-idKnjo2nlLllt-4" value="&lt;div&gt;&lt;span style=&quot;background-color: initial;&quot;&gt;+ createDB(): void&lt;/span&gt;&lt;/div&gt;" style="text;html=1;align=left;verticalAlign=middle;resizable=0;points=[];autosize=1;strokeColor=none;fillColor=none;" parent="uPGqjF-idKnjo2nlLllt-1" vertex="1">
          <mxGeometry y="60" width="618" height="26" as="geometry" />
        </mxCell>
        <mxCell id="uPGqjF-idKnjo2nlLllt-5" value="&lt;div style=&quot;border-color: var(--border-color);&quot;&gt;+ addPlayer(name: String, password: String, email: String, ClassID: int): void&lt;/div&gt;" style="text;html=1;align=left;verticalAlign=middle;resizable=0;points=[];autosize=1;strokeColor=none;fillColor=none;" parent="uPGqjF-idKnjo2nlLllt-1" vertex="1">
          <mxGeometry y="86" width="618" height="26" as="geometry" />
        </mxCell>
        <mxCell id="uPGqjF-idKnjo2nlLllt-6" value="&lt;div style=&quot;border-color: var(--border-color);&quot;&gt;+ addAdmin(name: String, password: String, email: String): void&lt;/div&gt;" style="text;html=1;align=left;verticalAlign=middle;resizable=0;points=[];autosize=1;strokeColor=none;fillColor=none;" parent="uPGqjF-idKnjo2nlLllt-1" vertex="1">
          <mxGeometry y="112" width="618" height="26" as="geometry" />
        </mxCell>
        <mxCell id="uPGqjF-idKnjo2nlLllt-7" value="+ addClassroom(name: String, AdminID: int): void" style="text;html=1;align=left;verticalAlign=middle;resizable=0;points=[];autosize=1;strokeColor=none;fillColor=none;" parent="uPGqjF-idKnjo2nlLllt-1" vertex="1">
          <mxGeometry y="138" width="618" height="26" as="geometry" />
        </mxCell>
        <mxCell id="uPGqjF-idKnjo2nlLllt-8" value="&lt;div style=&quot;border-color: var(--border-color);&quot;&gt;+ updatePlayerSandbox(PlayerID: int, projectTitle: String, saveState: String): void&lt;/div&gt;" style="text;html=1;align=left;verticalAlign=middle;resizable=0;points=[];autosize=1;strokeColor=none;fillColor=none;" parent="uPGqjF-idKnjo2nlLllt-1" vertex="1">
          <mxGeometry y="164" width="618" height="26" as="geometry" />
        </mxCell>
        <mxCell id="uPGqjF-idKnjo2nlLllt-9" value="+ updatePlayerProgress(LevelID: int, LevelScore: int, CurrentLevelSaveState: String): void" style="text;html=1;align=left;verticalAlign=middle;resizable=0;points=[];autosize=1;strokeColor=none;fillColor=none;" parent="uPGqjF-idKnjo2nlLllt-1" vertex="1">
          <mxGeometry y="190" width="618" height="26" as="geometry" />
        </mxCell>
        <mxCell id="uPGqjF-idKnjo2nlLllt-10" value="&lt;div style=&quot;border-color: var(--border-color);&quot;&gt;+ updatePlayer(PlayerID: int, name: String, password: String, email: String, ClassID: int, inTutorial: boolean): void&lt;/div&gt;" style="text;html=1;align=left;verticalAlign=middle;resizable=0;points=[];autosize=1;strokeColor=none;fillColor=none;" parent="uPGqjF-idKnjo2nlLllt-1" vertex="1">
          <mxGeometry y="216" width="618" height="26" as="geometry" />
        </mxCell>
        <mxCell id="uPGqjF-idKnjo2nlLllt-11" value="+ updateAdmin(AdminID: int, name: String, password: String, email: String): void" style="text;html=1;align=left;verticalAlign=middle;resizable=0;points=[];autosize=1;strokeColor=none;fillColor=none;" parent="uPGqjF-idKnjo2nlLllt-1" vertex="1">
          <mxGeometry y="242" width="618" height="26" as="geometry" />
        </mxCell>
        <mxCell id="uPGqjF-idKnjo2nlLllt-12" value="&lt;div style=&quot;border-color: var(--border-color);&quot;&gt;+ updateHighScore(PlayerID: int, UserScore: int): void&lt;/div&gt;" style="text;html=1;align=left;verticalAlign=middle;resizable=0;points=[];autosize=1;strokeColor=none;fillColor=none;" parent="uPGqjF-idKnjo2nlLllt-1" vertex="1">
          <mxGeometry y="268" width="618" height="26" as="geometry" />
        </mxCell>
        <mxCell id="uPGqjF-idKnjo2nlLllt-13" value="&lt;div style=&quot;border-color: var(--border-color);&quot;&gt;+ deletePlayer(PlayerID: int): void&lt;/div&gt;" style="text;html=1;align=left;verticalAlign=middle;resizable=0;points=[];autosize=1;strokeColor=none;fillColor=none;" parent="uPGqjF-idKnjo2nlLllt-1" vertex="1">
          <mxGeometry y="294" width="618" height="26" as="geometry" />
        </mxCell>
        <mxCell id="uPGqjF-idKnjo2nlLllt-14" value="&lt;div style=&quot;border-color: var(--border-color);&quot;&gt;+ printDB(): void&amp;nbsp;&lt;/div&gt;" style="text;html=1;align=left;verticalAlign=middle;resizable=0;points=[];autosize=1;strokeColor=none;fillColor=none;" parent="uPGqjF-idKnjo2nlLllt-1" vertex="1">
          <mxGeometry y="320" width="618" height="26" as="geometry" />
        </mxCell>
        <mxCell id="uPGqjF-idKnjo2nlLllt-15" value="&lt;div style=&quot;border-color: var(--border-color);&quot;&gt;+ getAdminID(ClassID, int): int&lt;/div&gt;" style="text;html=1;align=left;verticalAlign=middle;resizable=0;points=[];autosize=1;strokeColor=none;fillColor=none;" parent="uPGqjF-idKnjo2nlLllt-1" vertex="1">
          <mxGeometry y="346" width="618" height="26" as="geometry" />
        </mxCell>
        <mxCell id="uPGqjF-idKnjo2nlLllt-16" value="&lt;div style=&quot;border-color: var(--border-color);&quot;&gt;+ getSandboxID(PlayerID: int): int&lt;/div&gt;" style="text;html=1;align=left;verticalAlign=middle;resizable=0;points=[];autosize=1;strokeColor=none;fillColor=none;" parent="uPGqjF-idKnjo2nlLllt-1" vertex="1">
          <mxGeometry y="372" width="618" height="26" as="geometry" />
        </mxCell>
        <mxCell id="uPGqjF-idKnjo2nlLllt-17" value="&lt;div style=&quot;border-color: var(--border-color);&quot;&gt;+ getLevelID(PlayerID: int, currentLevel: int): int&lt;/div&gt;" style="text;html=1;align=left;verticalAlign=middle;resizable=0;points=[];autosize=1;strokeColor=none;fillColor=none;" parent="uPGqjF-idKnjo2nlLllt-1" vertex="1">
          <mxGeometry y="398" width="618" height="26" as="geometry" />
        </mxCell>
        <mxCell id="uPGqjF-idKnjo2nlLllt-18" value="&lt;div style=&quot;border-color: var(--border-color);&quot;&gt;+ getHighScore(PlayerID: int): int&lt;/div&gt;" style="text;html=1;align=left;verticalAlign=middle;resizable=0;points=[];autosize=1;strokeColor=none;fillColor=none;" parent="uPGqjF-idKnjo2nlLllt-1" vertex="1">
          <mxGeometry y="424" width="618" height="26" as="geometry" />
        </mxCell>
        <mxCell id="uPGqjF-idKnjo2nlLllt-19" value="+ resetDataBase(): int&amp;nbsp;" style="text;html=1;align=left;verticalAlign=middle;resizable=0;points=[];autosize=1;strokeColor=none;fillColor=none;" parent="uPGqjF-idKnjo2nlLllt-1" vertex="1">
          <mxGeometry y="450" width="618" height="26" as="geometry" />
        </mxCell>
      </root>
    </mxGraphModel>
  </diagram>
  <diagram id="b9codNxZGxBgIZJ7aPYW" name="Extra">
    <mxGraphModel dx="1314" dy="5" grid="1" gridSize="10" guides="1" tooltips="1" connect="1" arrows="1" fold="1" page="1" pageScale="1" pageWidth="1169" pageHeight="827" math="0" shadow="0">
      <root>
        <mxCell id="0" />
        <mxCell id="1" parent="0" />
        <mxCell id="HhffhrZTYt0jmgkdwJzJ-1" value="" style="shape=xor;whiteSpace=wrap;html=1;" vertex="1" parent="1">
          <mxGeometry x="422" y="1236" width="60" height="80" as="geometry" />
        </mxCell>
        <mxCell id="HhffhrZTYt0jmgkdwJzJ-2" value="Switch&#39;" style="rounded=0;whiteSpace=wrap;html=1;" vertex="1" parent="1">
          <mxGeometry x="234" y="1195" width="57" height="60" as="geometry" />
        </mxCell>
        <mxCell id="HhffhrZTYt0jmgkdwJzJ-3" value="Switch&#39;" style="rounded=0;whiteSpace=wrap;html=1;" vertex="1" parent="1">
          <mxGeometry x="240" y="1316" width="57" height="60" as="geometry" />
        </mxCell>
        <mxCell id="HhffhrZTYt0jmgkdwJzJ-4" value="" style="shape=or;whiteSpace=wrap;html=1;" vertex="1" parent="1">
          <mxGeometry x="636" y="1294" width="60" height="80" as="geometry" />
        </mxCell>
        <mxCell id="HhffhrZTYt0jmgkdwJzJ-5" value="Light" style="whiteSpace=wrap;html=1;aspect=fixed;" vertex="1" parent="1">
          <mxGeometry x="804" y="1283" width="80" height="80" as="geometry" />
        </mxCell>
        <mxCell id="HhffhrZTYt0jmgkdwJzJ-6" value="" style="shape=or;whiteSpace=wrap;html=1;" vertex="1" parent="1">
          <mxGeometry x="429" y="1419" width="60" height="80" as="geometry" />
        </mxCell>
        <mxCell id="HhffhrZTYt0jmgkdwJzJ-7" value="Switch&#39;" style="rounded=0;whiteSpace=wrap;html=1;" vertex="1" parent="1">
          <mxGeometry x="240" y="1439" width="57" height="60" as="geometry" />
        </mxCell>
        <mxCell id="HhffhrZTYt0jmgkdwJzJ-8" style="edgeStyle=orthogonalEdgeStyle;rounded=0;orthogonalLoop=1;jettySize=auto;html=1;entryX=0;entryY=0.75;entryDx=0;entryDy=0;entryPerimeter=0;" edge="1" parent="1" source="HhffhrZTYt0jmgkdwJzJ-7" target="HhffhrZTYt0jmgkdwJzJ-6">
          <mxGeometry relative="1" as="geometry" />
        </mxCell>
        <mxCell id="HhffhrZTYt0jmgkdwJzJ-9" style="edgeStyle=orthogonalEdgeStyle;rounded=0;orthogonalLoop=1;jettySize=auto;html=1;entryX=0;entryY=0.5;entryDx=0;entryDy=0;entryPerimeter=0;" edge="1" parent="1" source="HhffhrZTYt0jmgkdwJzJ-3" target="HhffhrZTYt0jmgkdwJzJ-6">
          <mxGeometry relative="1" as="geometry" />
        </mxCell>
        <mxCell id="HhffhrZTYt0jmgkdwJzJ-10" style="edgeStyle=orthogonalEdgeStyle;rounded=0;orthogonalLoop=1;jettySize=auto;html=1;entryX=0.165;entryY=0.63;entryDx=0;entryDy=0;entryPerimeter=0;" edge="1" parent="1" source="HhffhrZTYt0jmgkdwJzJ-3" target="HhffhrZTYt0jmgkdwJzJ-1">
          <mxGeometry relative="1" as="geometry" />
        </mxCell>
        <mxCell id="HhffhrZTYt0jmgkdwJzJ-11" style="edgeStyle=orthogonalEdgeStyle;rounded=0;orthogonalLoop=1;jettySize=auto;html=1;entryX=0.25;entryY=0.5;entryDx=0;entryDy=0;entryPerimeter=0;" edge="1" parent="1" source="HhffhrZTYt0jmgkdwJzJ-2" target="HhffhrZTYt0jmgkdwJzJ-1">
          <mxGeometry relative="1" as="geometry" />
        </mxCell>
        <mxCell id="HhffhrZTYt0jmgkdwJzJ-12" style="edgeStyle=orthogonalEdgeStyle;rounded=0;orthogonalLoop=1;jettySize=auto;html=1;entryX=0;entryY=0.5;entryDx=0;entryDy=0;entryPerimeter=0;" edge="1" parent="1" source="HhffhrZTYt0jmgkdwJzJ-1" target="HhffhrZTYt0jmgkdwJzJ-4">
          <mxGeometry relative="1" as="geometry" />
        </mxCell>
        <mxCell id="HhffhrZTYt0jmgkdwJzJ-13" style="edgeStyle=orthogonalEdgeStyle;rounded=0;orthogonalLoop=1;jettySize=auto;html=1;entryX=0.017;entryY=0.623;entryDx=0;entryDy=0;entryPerimeter=0;" edge="1" parent="1" source="HhffhrZTYt0jmgkdwJzJ-6" target="HhffhrZTYt0jmgkdwJzJ-4">
          <mxGeometry relative="1" as="geometry" />
        </mxCell>
        <mxCell id="HhffhrZTYt0jmgkdwJzJ-14" style="edgeStyle=orthogonalEdgeStyle;rounded=0;orthogonalLoop=1;jettySize=auto;html=1;entryX=0.022;entryY=0.633;entryDx=0;entryDy=0;entryPerimeter=0;" edge="1" parent="1" source="HhffhrZTYt0jmgkdwJzJ-4" target="HhffhrZTYt0jmgkdwJzJ-5">
          <mxGeometry relative="1" as="geometry" />
        </mxCell>
      </root>
    </mxGraphModel>
  </diagram>
</mxfile>
